<svg id="density" width="248.72" height="248.72" viewBox="0 0 248.72 248.72">
  <title>density</title>
  <g>
    <g>
      <path d="M125.07,250.26A124,124,0,0,1,1.21,126.39c0-43.91,22.92-73.23,42.14-90.1C66.05,16.37,96.12,3.45,121.81,2.58c1.23,0,2.28,0,3.25,0a123.86,123.86,0,0,1,0,247.72ZM126.69,8.93c-26.41,0-52.11,11.23-72.37,31.63-23.07,23.22-36.72,56-36.52,87.74C18,157,29.24,186.22,48.69,208.56c20.73,23.82,48.17,37,77.25,37h.12c29.12,0,56.58-13.15,77.33-37,19.46-22.39,30.75-51.74,31-80.53.23-28.59-10.5-58-29.45-80.57C184.86,23.47,158.06,9.81,129.49,9,128.55,8.94,127.62,8.93,126.69,8.93Z" transform="translate(-0.71 -2.03)"/>
      <path d="M125.07,3A123.36,123.36,0,0,1,212.3,213.62,123.36,123.36,0,0,1,1.71,126.39a113.89,113.89,0,0,1,12-51.3,125.93,125.93,0,0,1,30-38.42C66.3,16.82,96.25,3.95,121.83,3.08c1.22,0,2.29,0,3.24,0m1,243c29.26,0,56.86-13.21,77.71-37.2,19.54-22.48,30.87-51.95,31.11-80.85.23-28.71-10.54-58.19-29.56-80.89C185.15,23,158.22,9.31,129.5,8.47c-.93,0-1.88,0-2.81,0C100.14,8.43,74.31,19.72,54,40.21,30.79,63.52,17.09,96.45,17.29,128.3c.19,28.78,11.49,58.16,31,80.59,20.83,23.93,48.4,37.13,77.62,37.17h.12m-1-244c-1,0-2,0-3.27,0C73.17,3.73.71,49.23.71,126.39A124.36,124.36,0,1,0,125.07,2Zm1,243h-.12C64.11,245,18.67,185.87,18.29,128.29,17.91,69,65.36,9.43,126.69,9.43c.93,0,1.85,0,2.78,0C190,11.25,234.35,70.28,233.88,128S188,245.06,126.06,245.06Z" transform="translate(-0.71 -2.03)"/>
    </g>
    <g>
      <path d="M127.63,217.38A90.53,90.53,0,0,1,37.21,127C37.21,94.9,53.94,73.5,68,61.18c16.58-14.55,38.53-24,57.29-24.62.9,0,1.67,0,2.37,0a90.42,90.42,0,0,1,0,180.85Zm1.18-176.44c-19.34,0-38.17,8.23-53,23.16-16.89,17-26.89,41-26.74,64.24.14,21,8.38,42.41,22.62,58.77,15.18,17.44,35.28,27.07,56.58,27.09S169.8,204.59,185,187.1c14.25-16.39,22.52-37.88,22.69-59s-7.69-42.44-21.56-59C171.42,51.59,151.8,41.58,130.86,41,130.18,41,129.5,40.94,128.81,40.94Z" transform="translate(-0.71 -2.03)"/>
      <path d="M127.63,37A89.92,89.92,0,1,1,37.71,127a83,83,0,0,1,8.73-37.39,91.81,91.81,0,0,1,21.87-28c16.5-14.47,38.33-23.86,57-24.5.89,0,1.67,0,2.36,0m.73,177.68c21.47,0,41.72-9.69,57-27.29,14.32-16.48,22.64-38.09,22.81-59.29s-7.73-42.67-21.68-59.32C171.71,51.16,152,41.09,130.88,40.47c-.69,0-1.37,0-2.07,0-19.48,0-38.43,8.28-53.37,23.31-17,17.09-27,41.24-26.88,64.6C48.7,149.46,57,171,71.31,187.45c15.28,17.56,35.51,27.24,57,27.27h.09M127.63,36c-.71,0-1.49,0-2.39,0C89.69,37.28,36.71,70.54,36.71,127A90.92,90.92,0,1,0,127.63,36Zm.73,177.68h-.09c-45.21-.06-78.43-43.28-78.7-85.37C49.28,85,84,41.44,128.81,41.44l2,0c44.26,1.3,76.68,44.46,76.34,86.66s-33.55,85.59-78.83,85.59Z" transform="translate(-0.71 -2.03)"/>
    </g>
    <g>
      <path d="M127.51,189.15a63.38,63.38,0,0,1-63.31-63.31c0-22.44,11.71-37.42,21.54-46,11.61-10.19,27-16.79,40.11-17.24.63,0,1.17,0,1.66,0a63.31,63.31,0,0,1,0,126.61Zm.83-123.82c-13.61,0-26.86,5.79-37.31,16.3-11.88,12-18.91,28.85-18.81,45.19a64.67,64.67,0,0,0,15.91,41.34c10.68,12.27,24.82,19,39.82,19.06s29.23-6.78,39.92-19.08a65.1,65.1,0,0,0,16-41.48,64.9,64.9,0,0,0-15.17-41.5c-10.35-12.35-24.16-19.39-38.89-19.82Z" transform="translate(-0.71 -2.03)"/>
      <path d="M127.51,63a62.81,62.81,0,1,1-62.81,62.81c0-22.25,11.62-37.12,21.37-45.67C97.6,70.06,112.85,63.5,125.87,63.06c.62,0,1.15,0,1.64,0M128,187.72c15.16,0,29.45-6.84,40.24-19.25a65.6,65.6,0,0,0,16.08-41.8,65.41,65.41,0,0,0-15.28-41.82c-10.44-12.46-24.38-19.56-39.26-20l-1.46,0c-13.75,0-27.12,5.84-37.66,16.45-12,12.05-19.06,29.08-19,45.54a65.18,65.18,0,0,0,16,41.67c10.78,12.39,25.05,19.22,40.2,19.24H128M127.51,62c-.5,0-1,0-1.68,0-24.95.85-62.13,24.19-62.13,63.78A63.81,63.81,0,1,0,127.51,62ZM128,186.72H128c-31.72,0-55-30.37-55.23-59.91-.2-30.43,24.15-61,55.61-61l1.43,0c31.06.91,53.81,31.2,53.57,60.81S159.8,186.72,128,186.72Z" transform="translate(-0.71 -2.03)"/>
    </g>
    <g>
      <path d="M127.53,171.19a45.38,45.38,0,0,1-45.33-45.33c0-16.06,8.39-26.79,15.42-33,8.32-7.3,19.32-12,28.72-12.35l1.19,0a45.33,45.33,0,0,1,0,90.65Zm.6-88.93c-9.82,0-19.37,4.17-26.89,11.75a46.84,46.84,0,0,0-13.55,32.56c.13,20.56,16.66,43.49,40.17,43.52,19.3,0,40.07-17.53,40.28-43.63.21-25.74-20-43.62-39-44.18Z" transform="translate(-0.71 -2.03)"/>
      <path d="M127.53,81a44.83,44.83,0,1,1-44.83,44.83C82.71,110,91,99.38,98,93.27,106.19,86,117.07,81.37,126.36,81h1.17m.37,89.55c11,0,21.31-4.95,29.11-13.92a46,46,0,0,0,.58-60.42c-7.55-9-17.64-14.15-28.4-14.47l-1.06,0c-10,0-19.63,4.23-27.25,11.9a45.68,45.68,0,0,0-2.11,63c7.8,9,18.12,13.9,29.08,13.91h0M127.53,80l-1.21,0c-17.92.61-44.62,17.38-44.62,45.81A45.83,45.83,0,1,0,127.53,80Zm.37,89.55h0c-22.78,0-39.53-21.81-39.67-43-.14-21.86,17.34-43.8,39.94-43.8l1,0c22.31.65,38.65,22.41,38.48,43.68s-16.91,43.14-39.73,43.14Z" transform="translate(-0.71 -2.03)"/>
    </g>
    <g>
      <path d="M128.37,158.85a33.2,33.2,0,0,1-33.16-33.16c0-20.64,19.09-32.7,32.29-33.15h.87a33.16,33.16,0,0,1,0,66.32Zm.44-65.32A28,28,0,0,0,109,102.2a34.54,34.54,0,0,0-10,24c.1,15.17,12.29,32.08,29.63,32.1,14.24,0,29.56-12.93,29.72-32.18.15-19-14.74-32.17-28.75-32.58Z" transform="translate(-0.71 -2.03)"/>
      <path d="M128.37,93h.34a28.55,28.55,0,0,0-20.11,8.82A33.82,33.82,0,0,0,107,148.5a30.36,30.36,0,0,0,11.47,8.33,32.72,32.72,0,0,1-22.81-31.14A31.11,31.11,0,0,1,106.82,102c6-5.27,13.93-8.68,20.7-8.91h.85m4.22.27a32.66,32.66,0,0,1,8.36,62.53,30.93,30.93,0,0,0,9.28-7.34,34,34,0,0,0,.43-44.73,29,29,0,0,0-18.06-10.46M128.37,92h-.89c-13.16.45-32.77,12.76-32.77,33.65A33.66,33.66,0,1,0,128.37,92Zm.27,65.78h0c-16.74,0-29-16-29.14-31.6C99.36,110.15,112.2,94,128.8,94h.75c16.38.48,28.39,16.46,28.26,32.08s-12.42,31.68-29.18,31.68Z" transform="translate(-0.71 -2.03)"/>
    </g>
    <g>
      <path d="M127.65,147.42A22.47,22.47,0,0,1,105.21,125c0-13.44,12.73-22.13,21.86-22.44h.59a22.44,22.44,0,0,1,0,44.89Zm.3-44.52a19.27,19.27,0,0,0-13.64,6,23.71,23.71,0,0,0-6.86,16.48c.07,10.41,8.44,22,20.36,22,9.79,0,20.31-8.88,20.42-22.09.11-13-10.13-22.09-19.75-22.37Z" transform="translate(-0.71 -2.03)"/>
      <path d="M140.25,107a21.92,21.92,0,0,1,2.22,34.13A23.61,23.61,0,0,0,140.25,107m-25.84,1-.46.45a24.22,24.22,0,0,0-7,16.83A23,23,0,0,0,115.14,143a21.94,21.94,0,0,1-9.43-18,21.44,21.44,0,0,1,8.71-16.93m13.24-6H127c-9,.31-22.34,8.7-22.34,22.94A22.94,22.94,0,1,0,127.65,102Zm.18,44.84h0C116.4,146.86,108,136,108,125.33c-.07-10.94,8.68-21.93,20-21.93h.51c11.17.33,19.35,11.22,19.26,21.87s-8.47,21.6-19.89,21.6Z" transform="translate(-0.71 -2.03)"/>
    </g>
    <g>
      <path d="M122.66,137.8a14.63,14.63,0,0,1-9.45-13.67c0-6.51,4.59-11.3,9.38-13.41a13.94,13.94,0,0,0-3.68,2.68,15.78,15.78,0,0,0-4.56,11A14.85,14.85,0,0,0,122.66,137.8Zm11.53-.53a15.21,15.21,0,0,0-2.28-27.15,14.6,14.6,0,0,1,2.28,27.15Z" transform="translate(-0.71 -2.03)"/>
      <path d="M114.95,118.6a15.6,15.6,0,0,0-1.11,5.78,16.16,16.16,0,0,0,.55,4.12,14.05,14.05,0,0,1-.69-4.36,12.86,12.86,0,0,1,1.24-5.54M127.81,109h-.4c-5.91.2-14.71,5.73-14.71,15.1a15.1,15.1,0,1,0,15.1-15.1Zm.12,29.52h0c-7.51,0-13-7.19-13.07-14.18,0-7.2,5.72-14.44,13.16-14.44h.34c7.35.22,12.74,7.39,12.68,14.4s-5.57,14.22-13.09,14.22Z" transform="translate(-0.71 -2.03)"/>
    </g>
  </g>
</svg>
